<svg xmlns="http://www.w3.org/2000/svg" width="24" height="24" viewBox="0 0 24 24" fill="currentColor"><path d="M4.5 10.2c1 0 1.9-1 1.9-2.3S5.5 5.6 4.5 5.6s-1.9 1-1.9 2.3 .9 2.3 1.9 2.3zm5.6-1.4c1 0 1.9-1.1 1.9-2.4S11.1 4 10.1 4 8.2 5.1 8.2 6.4s.9 2.4 1.9 2.4zm7.9-2.4c0-1.3-.9-2.4-1.9-2.4s-1.9 1.1-1.9 2.4 .9 2.4 1.9 2.4 1.9-1.1 1.9-2.4zm2.6 5.2c0-1.3-.9-2.3-1.9-2.3s-1.9 1-1.9 2.3 .9 2.3 1.9 2.3 1.9-1 1.9-2.3zM12 12.4c-2.6 0-6.4 2.7-6.4 5.4 0 1.3 1 2.2 2.3 2.2.9 0 1.5-.4 2.4-.4.7 0 1.3.4 1.7.4s1-.4 1.7-.4c.9 0 1.5.4 2.4.4 1.3 0 2.3-.9 2.3-2.2 0-2.7-3.8-5.4-6.4-5.4z"/></svg>
